<?xml version="1.0" encoding="UTF-8" standalone="no"?>
<svg
   xmlns:dc="http://purl.org/dc/elements/1.1/"
   xmlns:cc="http://creativecommons.org/ns#"
   xmlns:rdf="http://www.w3.org/1999/02/22-rdf-syntax-ns#"
   xmlns:svg="http://www.w3.org/2000/svg"
   xmlns="http://www.w3.org/2000/svg"
   xmlns:sodipodi="http://sodipodi.sourceforge.net/DTD/sodipodi-0.dtd"
   xmlns:inkscape="http://www.inkscape.org/namespaces/inkscape"
   enable-background="new 0 0 24 24"
   viewBox="0 0 41.508894 34.653555"
   width="8.2369213mm"
   height="6.876565mm"
   version="1.1"
   id="svg3779"
   sodipodi:docname="euro_per_liter_icon.svg"
   style="fill:#000000"
   inkscape:version="0.92.5 (2060ec1f9f, 2020-04-08)">
  <metadata
     id="metadata3785">
    <rdf:RDF>
      <cc:Work
         rdf:about="">
        <dc:format>image/svg+xml</dc:format>
        <dc:type
           rdf:resource="http://purl.org/dc/dcmitype/StillImage" />
        <dc:title></dc:title>
      </cc:Work>
    </rdf:RDF>
  </metadata>
  <defs
     id="defs3783" />
  <sodipodi:namedview
     pagecolor="#ffffff"
     bordercolor="#666666"
     borderopacity="1"
     objecttolerance="10"
     gridtolerance="10"
     guidetolerance="10"
     inkscape:pageopacity="0"
     inkscape:pageshadow="2"
     inkscape:window-width="1920"
     inkscape:window-height="1017"
     id="namedview3781"
     showgrid="false"
     units="mm"
     inkscape:zoom="17.212466"
     inkscape:cx="36.570016"
     inkscape:cy="13.250845"
     inkscape:window-x="0"
     inkscape:window-y="0"
     inkscape:window-maximized="1"
     inkscape:current-layer="svg3779" />
  <g
     id="g3771"
     transform="translate(-15.268998,26.3698)">
    <rect
       height="24"
       width="24"
       id="rect3769"
       x="0"
       y="0"
       style="fill:none" />
  </g>
  <g
     id="g3777"
     transform="matrix(0.91483313,0,0,1,-1.2874237,-0.44371327)">
    <g
       id="g3773" />
    <path
       d="M 15,18.5 C 12.49,18.5 10.32,17.08 9.24,15 H 15 l 1,-2 H 8.58 C 8.53,12.67 8.5,12.34 8.5,12 8.5,11.66 8.53,11.33 8.58,11 H 15 L 16,9 H 9.24 C 10.32,6.92 12.5,5.5 15,5.5 c 1.61,0 3.09,0.59 4.23,1.57 L 21,5.3 C 19.41,3.87 17.3,3 15,3 11.08,3 7.76,5.51 6.52,9 H 3 L 2,11 H 6.06 C 6.02,11.33 6,11.66 6,12 c 0,0.34 0.02,0.67 0.06,1 H 3 l -1,2 h 4.52 c 1.24,3.49 4.56,6 8.48,6 2.31,0 4.41,-0.87 6,-2.3 L 19.22,16.93 C 18.09,17.91 16.62,18.5 15,18.5 Z"
       id="path3775"
       inkscape:connector-curvature="0" />
  </g>
  <g
     id="g3851"
     transform="matrix(0.92204833,0,0,0.99958564,20.309295,11.825449)">
    <path
       id="path3837"
       d="M 24,0 H 0 v 24 h 24 z m 0,0 H 0 V 24 H 24 Z M 0,24 H 24 V 0 H 0 Z"
       inkscape:connector-curvature="0"
       style="fill:none" />
    <path
       id="path3839"
       d="M 17.66,8 12,2.35 6.34,8 C 4.78,9.56 4,11.64 4,13.64 c 0,2 0.78,4.11 2.34,5.67 1.56,1.56 3.61,2.35 5.66,2.35 2.05,0 4.1,-0.79 5.66,-2.35 C 19.22,17.75 20,15.64 20,13.64 20,11.64 19.22,9.56 17.66,8 Z M 6,14 C 6.01,12 6.62,10.73 7.76,9.6 L 12,5.27 16.24,9.65 C 17.38,10.77 17.99,12 18,14 Z"
       inkscape:connector-curvature="0" />
  </g>
  <path
     style="fill:none;stroke:#000000;stroke-width:1.0666666;stroke-linecap:butt;stroke-linejoin:miter;stroke-miterlimit:4;stroke-dasharray:none;stroke-opacity:1"
     d="M 11.501387,33.232501 30.919432,2.4872014"
     id="path3859"
     inkscape:connector-curvature="0" />
</svg>
